<svg xmlns="http://www.w3.org/2000/svg" width="256" height="256" viewBox="0 0 100 100"><rect width="100" height="100" rx="0" fill="#2b2222"></rect><path d="M29.60 23.18L29.60 23.18L29.60 70.19Q29.60 75.37 33.09 76.05L33.09 76.05L33.09 77.92L24.50 82.77Q22.63 82.00 21.02 80.26Q19.40 78.52 19.40 76.99L19.40 76.99L19.40 29.98Q19.40 24.80 15.91 24.12L15.91 24.12L15.91 22.25L24.50 17.40Q26.37 18.17 27.98 19.91Q29.60 21.65 29.60 23.18ZM55.95 73.76L55.95 29.81Q55.95 25.14 51.79 24.29L51.79 24.29L51.79 22.42Q60.97 17.32 61.05 17.32L61.05 17.32Q61.82 17.32 63.77 18.98Q65.73 20.63 66.15 22.50L66.15 22.50Q66.32 22.33 71.34 19.83Q76.35 17.32 76.44 17.32L76.44 17.32Q78.14 17.32 80.18 19.36L80.18 19.36Q84.09 23.27 84.09 29.81L84.09 29.81L84.09 74.86Q84.09 75.63 74.99 79.20Q65.90 82.77 63.69 82.77L63.69 82.77Q59.69 82.77 57.06 77.50L57.06 77.50Q47.70 82.77 45.24 82.77Q42.78 82.77 40.44 79.16Q38.10 75.54 38.10 72.48L38.10 72.48L38.10 29.81Q38.10 25.14 33.94 24.29L33.94 24.29L33.94 22.42L43.20 17.23Q45.07 18.00 46.69 19.74Q48.30 21.48 48.30 22.93L48.30 22.93L48.30 66.19Q48.30 74.27 53.31 74.27L53.31 74.27Q54.59 74.27 55.95 73.76L55.95 73.76ZM66.24 67.04Q66.24 69.76 67.30 72.10Q68.36 74.44 70.23 74.44Q72.10 74.44 73.80 73.67L73.80 73.67L73.80 32.87Q73.80 28.45 72.02 26.97Q70.23 25.48 66.24 25.39L66.24 25.39L66.24 67.04Z" fill="#ffffff"></path></svg>