<?xml version="1.0" standalone="no"?>
<!DOCTYPE svg PUBLIC "-//W3C//DTD SVG 20010904//EN"
 "http://www.w3.org/TR/2001/REC-SVG-20010904/DTD/svg10.dtd">
<svg version="1.0" xmlns="http://www.w3.org/2000/svg"
 width="233.000000pt" height="233.000000pt" viewBox="0 0 233.000000 233.000000"
 preserveAspectRatio="xMidYMid meet">
<metadata>
Created by potrace 1.14, written by Peter Selinger 2001-2017
</metadata>
<g transform="translate(0.000000,233.000000) scale(0.100000,-0.100000)"
fill="#000000" stroke="none">
<path d="M1170 2196 l0 -64 55 -4 c30 -1 60 -1 65 0 6 2 10 33 10 68 l0 64
-65 0 -65 0 0 -64z"/>
<path d="M1036 2121 c-2 -3 -3 -63 -2 -133 1 -71 -2 -128 -6 -129 -38 -5 -115
-3 -123 3 -6 4 -10 34 -8 67 l2 61 -135 0 -134 0 0 -64 c0 -42 -4 -65 -12 -68
-7 -2 -68 -3 -135 -3 l-123 1 0 -66 0 -66 123 1 c67 0 128 -1 135 -3 8 -3 12
-26 12 -71 l0 -66 -132 1 -133 1 -5 -66 -5 -66 -51 -1 c-79 -2 -81 -4 -79 -73
2 -68 8 -64 -88 -61 l-47 1 0 -405 0 -405 68 -3 67 -3 -1 -62 c0 -69 -6 -65
81 -67 l50 -1 3 -68 3 -67 64 0 c36 0 65 -3 66 -7 1 -5 2 -31 3 -60 0 -28 5
-55 9 -60 5 -4 307 -8 673 -8 l664 0 0 68 0 67 68 0 68 0 -1 61 c-1 33 4 63 9
67 6 4 36 7 66 7 l55 0 3 68 3 67 67 0 67 0 0 403 0 402 -50 2 c-28 1 -58 2
-67 2 -14 1 -18 13 -20 68 l-3 67 -65 0 -65 1 0 65 0 65 -120 2 c-66 1 -127 2
-135 2 -12 1 -15 15 -15 66 0 58 2 65 20 66 11 0 67 2 125 3 58 2 110 4 116 4
8 1 11 24 10 65 l-3 62 -127 0 c-145 1 -146 2 -140 76 2 26 0 50 -5 54 -13 7
-250 9 -258 1 -4 -3 -6 -33 -5 -66 1 -50 -2 -60 -16 -61 -56 -4 -99 -4 -109
-1 -9 3 -13 26 -13 68 0 71 5 67 -82 64 l-48 -1 -1 38 c-2 107 3 98 -67 99
-34 1 -64 -1 -66 -5z"/>
</g>
</svg>
